<svg xmlns="http://www.w3.org/2000/svg" viewBox="0 0 200 200" width="200" height="200">
  <!-- Background Circle -->
  <circle cx="100" cy="100" r="95" fill="#3B82F6" />

  <!-- Washing Machine Body -->
  <rect x="45" y="50" width="110" height="120" rx="12" fill="white" />

  <!-- Control Panel -->
  <rect x="50" y="55" width="100" height="25" rx="4" fill="#E5E7EB" />

  <!-- Control Buttons -->
  <circle cx="65" cy="67" r="6" fill="#3B82F6" />
  <circle cx="85" cy="67" r="6" fill="#10B981" />
  <rect x="100" y="62" width="40" height="10" rx="2" fill="#94A3B8" />

  <!-- Drum Window -->
  <circle cx="100" cy="120" r="40" fill="#E0F2FE" stroke="#3B82F6" stroke-width="4" />
  <circle cx="100" cy="120" r="32" fill="#BFDBFE" />

  <!-- Water/Clothes Swirl -->
  <path d="M 75 110 Q 85 95 100 100 Q 115 105 125 95" stroke="#3B82F6" stroke-width="4" fill="none" stroke-linecap="round" />
  <path d="M 70 125 Q 85 115 100 120 Q 115 125 130 115" stroke="#60A5FA" stroke-width="3" fill="none" stroke-linecap="round" />
  <path d="M 75 140 Q 90 130 100 135 Q 115 140 125 130" stroke="#93C5FD" stroke-width="3" fill="none" stroke-linecap="round" />

  <!-- Bubbles -->
  <circle cx="150" cy="45" r="8" fill="white" opacity="0.9" />
  <circle cx="165" cy="60" r="5" fill="white" opacity="0.8" />
  <circle cx="160" cy="35" r="4" fill="white" opacity="0.7" />
  <circle cx="175" cy="50" r="3" fill="white" opacity="0.6" />

  <!-- Sparkle -->
  <path d="M 35 70 L 40 75 L 35 80 L 30 75 Z" fill="white" opacity="0.9" />
  <path d="M 25 55 L 28 58 L 25 61 L 22 58 Z" fill="white" opacity="0.7" />
</svg>
